<svg width="41" height="47" viewBox="0 0 41 47" fill="none" xmlns="http://www.w3.org/2000/svg">
<path d="M16.9567 18.6587C16.7674 18.9995 14.3344 23.3163 9.65792 31.6091C9.14672 32.48 8.53139 32.9155 7.81193 32.9155H1.02435C0.626751 32.9155 0.333285 32.7546 0.143953 32.4327C-0.0453801 32.1108 -0.0453801 31.77 0.143953 31.4103L7.32913 18.6871C7.34806 18.6871 7.34806 18.6777 7.32913 18.6587L2.75674 10.7352C2.52955 10.3186 2.52008 9.96837 2.72834 9.68437C2.89874 9.40037 3.20168 9.25837 3.63714 9.25837H10.4247C11.1821 9.25837 11.8068 9.68437 12.2991 10.5364L16.9567 18.6587ZM39.847 0.425999C40.0553 0.728931 40.0553 1.0792 39.847 1.4768L24.8519 28.0023V28.0307L34.3942 45.4967C34.6025 45.8753 34.612 46.2256 34.4226 46.5475C34.2333 46.8314 33.9304 46.9734 33.5138 46.9734H26.7263C25.9311 46.9734 25.3063 46.5475 24.8519 45.6955L15.2243 28.0307C15.5651 27.4248 20.5919 18.5073 30.3047 1.278C30.778 0.425999 31.3839 0 32.1223 0H38.9666C39.3832 0 39.6766 0.142 39.847 0.425999Z" fill="#FF5EE9"/>
</svg>
