<svg width="20" height="20" viewBox="0 0 20 20" fill="none" xmlns="http://www.w3.org/2000/svg">
<path fill-rule="evenodd" clip-rule="evenodd" d="M0.195312 1.40081C0.195312 0.627373 0.838204 0 1.63129 0H18.1912C18.9843 0 19.6272 0.627373 19.6272 1.40081V18.1544C19.6272 18.9281 18.9843 19.5552 18.1912 19.5552H1.63129C0.838204 19.5552 0.195312 18.9281 0.195312 18.1544V1.40081ZM6.086 16.3696V7.53934H3.15099V16.3696H6.086ZM4.61848 6.33371C5.64198 6.33371 6.27903 5.65565 6.27903 4.80826C6.25995 3.9418 5.64199 3.28255 4.6379 3.28255C3.63392 3.28255 2.97749 3.9418 2.97749 4.80826C2.97749 5.65565 3.6144 6.33371 4.59935 6.33371H4.61843H4.61848ZM10.645 16.3696H7.7101C7.7101 16.3696 7.74862 8.36791 7.7101 7.53934H10.6451V8.78953C10.6385 8.79975 10.6319 8.80989 10.6255 8.81995H10.6451V8.78953C11.0351 8.18784 11.7332 7.33213 13.2901 7.33213C15.2212 7.33213 16.6691 8.59419 16.6691 11.3064V16.3696H13.7344V11.6456C13.7344 10.4585 13.3095 9.64878 12.2475 9.64878C11.4367 9.64878 10.9538 10.1949 10.7416 10.7222C10.6641 10.9108 10.645 11.1745 10.645 11.4384V16.3696Z" fill="white"/>
</svg>
