<svg width="40" height="40" viewBox="0 0 40 40" fill="none" xmlns="http://www.w3.org/2000/svg">
<path fill-rule="evenodd" clip-rule="evenodd" d="M0.394531 2.80171C0.394531 1.25479 1.68036 0 3.26658 0H36.3875C37.9737 0 39.2596 1.25479 39.2596 2.80171V36.3099C39.2596 37.8573 37.9737 39.1116 36.3875 39.1116H3.26658C1.68036 39.1116 0.394531 37.8573 0.394531 36.3099V2.80171ZM12.1744 32.7403V15.0792H6.30422V32.7403H12.1744ZM9.2393 12.6679C11.2864 12.6679 12.5605 11.3117 12.5605 9.61691C12.5223 7.88394 11.2864 6.56539 9.27814 6.56539C7.27011 6.56539 5.95721 7.88394 5.95721 9.61691C5.95721 11.3117 7.23106 12.6679 9.20104 12.6679H9.23919H9.2393ZM21.2964 32.7403H15.4264C15.4264 32.7403 15.5035 16.7364 15.4264 15.0792H21.2966V17.5797C21.2833 17.6001 21.2703 17.6204 21.2574 17.6405H21.2966V17.5797C22.0767 16.3763 23.4729 14.6648 26.5869 14.6648C30.449 14.6648 33.345 17.189 33.345 22.6137V32.7403H27.4753V23.292C27.4753 20.9178 26.6256 19.2983 24.5015 19.2983C22.8798 19.2983 21.9139 20.3905 21.4896 21.4451C21.3346 21.8225 21.2964 22.3498 21.2964 22.8776V32.7403Z" fill="#FF5EE9"/>
</svg>
