<svg width="20" height="24" viewBox="0 0 20 24" fill="none" xmlns="http://www.w3.org/2000/svg">
<path d="M8.4771 9.32907C8.38244 9.49947 7.16602 11.6578 4.82783 15.804C4.57224 16.2395 4.26458 16.4572 3.90486 16.4572H0.511182C0.312389 16.4572 0.165661 16.3768 0.0709975 16.2158C-0.0236658 16.0549 -0.0236658 15.8845 0.0709975 15.7047L3.66347 9.34327C3.67294 9.34327 3.67294 9.33854 3.66347 9.32907L1.37735 5.36741C1.26376 5.15915 1.25902 4.98403 1.36315 4.84203C1.44835 4.70004 1.59981 4.62904 1.81754 4.62904H5.21122C5.58987 4.62904 5.90226 4.84203 6.14838 5.26802L8.4771 9.32907ZM19.9219 0.212993C20.026 0.364454 20.026 0.539581 19.9219 0.738374L12.4246 14.0007V14.0149L17.1956 22.7476C17.2997 22.9369 17.3045 23.1121 17.2098 23.273C17.1151 23.415 16.9637 23.486 16.7554 23.486H13.3617C12.9641 23.486 12.6518 23.273 12.4246 22.847L7.61093 14.0149C7.78133 13.712 10.2946 9.25334 15.1509 0.638978C15.3875 0.212993 15.6905 0 16.0596 0H19.4817C19.69 0 19.8367 0.0709975 19.9219 0.212993Z" fill="white"/>
</svg>
