<svg id="ac75ffe5-9e63-414b-92fc-1f154b8a1421" data-name="Ebene 1" xmlns="http://www.w3.org/2000/svg" width="46.57mm" height="42.69mm" viewBox="0 0 132 121"><title>preloader-icon-ai-02</title><rect x="1.5" y="40.5" width="44" height="79" rx="5.5" style="fill:none;stroke:#000;stroke-width:3px"/><path d="M125,1.5H23A5.5,5.5,0,0,0,17.5,7V40.5H40A5.5,5.5,0,0,1,45.5,46V80.5H125a5.5,5.5,0,0,0,5.5-5.5V7A5.5,5.5,0,0,0,125,1.5Z" style="fill:none;stroke:#000;stroke-width:3px"/><rect x="62.5" y="80.5" width="23" height="17" style="fill:none;stroke:#000;stroke-width:3px"/><path d="M101,101.45l-2.78-7a1.5,1.5,0,0,0-1.4-1H85.5v4h-23v-4H50.33a1.5,1.5,0,0,0-1.43,1l-2.23,7a1.5,1.5,0,0,0,1.43,2H99.58A1.5,1.5,0,0,0,101,101.45Z" style="fill:none;stroke:#000;stroke-width:3px"/><circle cx="24" cy="111" r="4"/><path d="M2,100.5H44" style="fill:none;stroke:#000;stroke-width:3px"/></svg>